<?xml version="1.0" encoding="utf-8"?>
<!-- Generator: Adobe Illustrator 22.1.0, SVG Export Plug-In . SVG Version: 6.00 Build 0)  -->
<svg version="1.1" id="Layer_1" xmlns="http://www.w3.org/2000/svg" xmlns:xlink="http://www.w3.org/1999/xlink" x="0px" y="0px"
	 viewBox="0 0 312 229" style="enable-background:new 0 0 312 229;" xml:space="preserve">
<style type="text/css">
	.st0{fill:none;stroke:url(#SVGID_1_);stroke-width:12;stroke-miterlimit:10;}
	.st1{fill:none;stroke:url(#SVGID_2_);stroke-miterlimit:10;}
	.st2{fill:none;stroke:url(#SVGID_3_);stroke-miterlimit:10;}
</style>
<linearGradient id="SVGID_1_" gradientUnits="userSpaceOnUse" x1="53.3333" y1="161.174" x2="311.6667" y2="161.174">
	<stop  offset="0" style="stop-color:#ED1C24"/>
	<stop  offset="1" style="stop-color:#ED1E79"/>
</linearGradient>
<path class="st0" d="M285.8,187.6 M292.7,177.4c1-1.7,1.9-3.4,2.7-5.1 M85.8,208 M75.7,208 M70.8,208 M68.7,208 M67.3,208
	 M64.3,217.1 M147.3,221.5 M150.8,214.9 M152.9,208.8 M153.9,204.3 M154.7,195.7 M153.2,183.6 M151,177c-7.2-17.4-24.2-29.7-44-29.7
	c-26.3,0-47.7,21.6-47.7,48.3 M131.5,176.1 M257.1,184 M260,173.5c0.7-3.6,1-7.4,1-11.2c0-35.2-29.3-63.8-65.5-63.8
	c-33.8,0-61.6,24.9-65.1,56.8 M242.4,184.5 M305.2,207.8 M305.6,204.2 M305.7,201.8c0-18.8-15.2-34-34-34
	c-12.5,0-23.3,6.7-29.3,16.7 M311.5,223.5L54,223.8 M305.7,228.9l-0.1-27.9 M59.3,195.7l0.1,34.2"/>
<linearGradient id="SVGID_2_" gradientUnits="userSpaceOnUse" x1="195.5" y1="116.7917" x2="195.5" y2="116.7917">
	<stop  offset="0" style="stop-color:#ED1C24"/>
	<stop  offset="1" style="stop-color:#ED1E79"/>
</linearGradient>
<path class="st1" d="M195.5,116.8"/>
<linearGradient id="SVGID_3_" gradientUnits="userSpaceOnUse" x1="-415.7068" y1="119.565" x2="-415.7068" y2="119.565" gradientTransform="matrix(-1 5.627430e-03 5.627430e-03 1 -221.0476 0.5886)">
	<stop  offset="0" style="stop-color:#ED1C24"/>
	<stop  offset="1" style="stop-color:#ED1E79"/>
</linearGradient>
<path class="st2" d="M195.3,117.8"/>
</svg>
