<?xml version="1.0" encoding="utf-8"?>
<!-- Generator: Adobe Illustrator 22.1.0, SVG Export Plug-In . SVG Version: 6.00 Build 0)  -->
<svg version="1.1" id="Layer_1" xmlns="http://www.w3.org/2000/svg" xmlns:xlink="http://www.w3.org/1999/xlink" x="0px" y="0px"
	 viewBox="0 0 312 229" style="enable-background:new 0 0 312 229;" xml:space="preserve">
<style type="text/css">
	.st0{fill:none;stroke:url(#SVGID_1_);stroke-width:12;stroke-miterlimit:10;}
	.st1{fill:none;stroke:url(#SVGID_2_);stroke-width:12;stroke-miterlimit:10;}
	.st2{fill:none;stroke:url(#SVGID_3_);stroke-width:12;stroke-miterlimit:10;}
	.st3{opacity:0.3;fill:none;stroke:url(#SVGID_4_);stroke-width:12;stroke-miterlimit:10;}
	.st4{opacity:0.3;fill:none;stroke:url(#SVGID_5_);stroke-width:12;stroke-miterlimit:10;}
	.st5{opacity:0.3;fill:none;stroke:url(#SVGID_6_);stroke-width:12;stroke-miterlimit:10;}
	.st6{fill:none;stroke:url(#SVGID_7_);stroke-width:12;stroke-miterlimit:10;}
	.st7{opacity:0.3;fill:none;stroke:url(#SVGID_8_);stroke-width:12;stroke-miterlimit:10;}
</style>
<linearGradient id="SVGID_1_" gradientUnits="userSpaceOnUse" x1="35.5194" y1="161.3862" x2="301.7274" y2="161.3862">
	<stop  offset="0" style="stop-color:#ED1C24"/>
	<stop  offset="1" style="stop-color:#ED1E79"/>
</linearGradient>
<path class="st0" d="M73.3,158.9c-10.1,12.4-20.1,12.8-34,1.5 M104,160.8c-13.8-11.3-23.8-10.9-34,1.5 M104,160.3
	c13.8,11.3,23.8,10.9,34-1.5 M168.7,160.7c-13.8-11.3-23.8-10.9-34,1.5 M168.6,160.2c13.8,11.3,23.8,10.9,34-1.5 M233.3,160.6
	c-13.8-11.3-23.8-10.9-34,1.5 M233.1,160.7c12.9,12.4,22.9,12.8,34,1.2 M297.6,166.3c-12.9-12.4-22.9-12.8-34-1.2"/>
<linearGradient id="SVGID_2_" gradientUnits="userSpaceOnUse" x1="30.5194" y1="121.3862" x2="296.7274" y2="121.3862">
	<stop  offset="0" style="stop-color:#ED1C24"/>
	<stop  offset="1" style="stop-color:#ED1E79"/>
</linearGradient>
<path class="st1" d="M68.3,118.9c-10.1,12.4-20.1,12.8-34,1.5 M99,120.8c-13.8-11.3-23.8-10.9-34,1.5 M99,120.3
	c13.8,11.3,23.8,10.9,34-1.5 M163.7,120.7c-13.8-11.3-23.8-10.9-34,1.5 M163.6,120.2c13.8,11.3,23.8,10.9,34-1.5 M228.3,120.6
	c-13.8-11.3-23.8-10.9-34,1.5 M228.1,120.7c12.9,12.4,22.9,12.8,34,1.2 M292.6,126.3c-12.9-12.4-22.9-12.8-34-1.2"/>
<linearGradient id="SVGID_3_" gradientUnits="userSpaceOnUse" x1="30.5194" y1="82.3862" x2="296.7274" y2="82.3862">
	<stop  offset="0" style="stop-color:#ED1C24"/>
	<stop  offset="1" style="stop-color:#ED1E79"/>
</linearGradient>
<path class="st2" d="M68.3,79.9c-10.1,12.4-20.1,12.8-34,1.5 M99,81.8c-13.8-11.3-23.8-10.9-34,1.5 M99,81.3
	c13.8,11.3,23.8,10.9,34-1.5 M163.7,81.7c-13.8-11.3-23.8-10.9-34,1.5 M163.6,81.2c13.8,11.3,23.8,10.9,34-1.5 M228.3,81.6
	c-13.8-11.3-23.8-10.9-34,1.5 M228.1,81.7c12.9,12.4,22.9,12.8,34,1.2 M292.6,87.3c-12.9-12.4-22.9-12.8-34-1.2"/>
<linearGradient id="SVGID_4_" gradientUnits="userSpaceOnUse" x1="37.5194" y1="169.3862" x2="303.7274" y2="169.3862">
	<stop  offset="0" style="stop-color:#ED1C24"/>
	<stop  offset="1" style="stop-color:#ED1E79"/>
</linearGradient>
<path class="st3" d="M75.3,166.9c-10.1,12.4-20.1,12.8-34,1.5 M106,168.8c-13.8-11.3-23.8-10.9-34,1.5 M106,168.3
	c13.8,11.3,23.8,10.9,34-1.5 M170.7,168.7c-13.8-11.3-23.8-10.9-34,1.5 M170.6,168.2c13.8,11.3,23.8,10.9,34-1.5 M235.3,168.6
	c-13.8-11.3-23.8-10.9-34,1.5 M235.1,168.7c12.9,12.4,22.9,12.8,34,1.2 M299.6,174.3c-12.9-12.4-22.9-12.8-34-1.2"/>
<linearGradient id="SVGID_5_" gradientUnits="userSpaceOnUse" x1="32.5194" y1="129.3862" x2="298.7274" y2="129.3862">
	<stop  offset="0" style="stop-color:#ED1C24"/>
	<stop  offset="1" style="stop-color:#ED1E79"/>
</linearGradient>
<path class="st4" d="M70.3,126.9c-10.1,12.4-20.1,12.8-34,1.5 M101,128.8c-13.8-11.3-23.8-10.9-34,1.5 M101,128.3
	c13.8,11.3,23.8,10.9,34-1.5 M165.7,128.7c-13.8-11.3-23.8-10.9-34,1.5 M165.6,128.2c13.8,11.3,23.8,10.9,34-1.5 M230.3,128.6
	c-13.8-11.3-23.8-10.9-34,1.5 M230.1,128.7c12.9,12.4,22.9,12.8,34,1.2 M294.6,134.3c-12.9-12.4-22.9-12.8-34-1.2"/>
<linearGradient id="SVGID_6_" gradientUnits="userSpaceOnUse" x1="32.5194" y1="90.3862" x2="298.7274" y2="90.3862">
	<stop  offset="0" style="stop-color:#ED1C24"/>
	<stop  offset="1" style="stop-color:#ED1E79"/>
</linearGradient>
<path class="st5" d="M70.3,87.9c-10.1,12.4-20.1,12.8-34,1.5 M101,89.8c-13.8-11.3-23.8-10.9-34,1.5 M101,89.3
	c13.8,11.3,23.8,10.9,34-1.5 M165.7,89.7c-13.8-11.3-23.8-10.9-34,1.5 M165.6,89.2c13.8,11.3,23.8,10.9,34-1.5 M230.3,89.6
	c-13.8-11.3-23.8-10.9-34,1.5 M230.1,89.7c12.9,12.4,22.9,12.8,34,1.2 M294.6,95.3c-12.9-12.4-22.9-12.8-34-1.2"/>
<linearGradient id="SVGID_7_" gradientUnits="userSpaceOnUse" x1="105.5194" y1="200.5341" x2="367.5653" y2="200.5341">
	<stop  offset="0" style="stop-color:#ED1C24"/>
	<stop  offset="1" style="stop-color:#ED1E79"/>
</linearGradient>
<path class="st6" d="M143.3,198.9c-10.1,12.4-20.1,12.8-34,1.5 M174,200.8c-13.8-11.3-23.8-10.9-34,1.5 M174,200.3
	c13.8,11.3,23.8,10.9,34-1.5 M238.7,200.7c-13.8-11.3-23.8-10.9-34,1.5 M272.6,198.7 M238.6,200.2c1.7,1.4,3.4,2.7,5,3.7
	 M333.6,205.1 M367.6,206.3"/>
<linearGradient id="SVGID_8_" gradientUnits="userSpaceOnUse" x1="108.5194" y1="208.5341" x2="370.5653" y2="208.5341">
	<stop  offset="0" style="stop-color:#ED1C24"/>
	<stop  offset="1" style="stop-color:#ED1E79"/>
</linearGradient>
<path class="st7" d="M146.3,206.9c-10.1,12.4-20.1,12.8-34,1.5 M177,208.8c-13.8-11.3-23.8-10.9-34,1.5 M177,208.3
	c13.8,11.3,23.8,10.9,34-1.5 M241.7,208.7c-13.8-11.3-23.8-10.9-34,1.5 M275.6,206.7 M241.6,208.2c1.7,1.4,3.4,2.7,5,3.7
	 M336.6,213.1 M370.6,214.3"/>
</svg>
