<?xml version="1.0" encoding="utf-8"?>
<!-- Generator: Adobe Illustrator 22.1.0, SVG Export Plug-In . SVG Version: 6.00 Build 0)  -->
<svg version="1.1" id="Layer_1" xmlns="http://www.w3.org/2000/svg" xmlns:xlink="http://www.w3.org/1999/xlink" x="0px" y="0px"
	 viewBox="0 0 314 244" style="enable-background:new 0 0 314 244;" xml:space="preserve">
<style type="text/css">
	.st0{fill:none;stroke:url(#SVGID_1_);stroke-width:12;stroke-miterlimit:10;}
	.st1{fill:none;stroke:url(#SVGID_2_);stroke-miterlimit:10;}
	.st2{fill:none;stroke:url(#SVGID_3_);stroke-miterlimit:10;}
	.st3{fill:url(#SVGID_4_);stroke:url(#SVGID_5_);stroke-width:2;stroke-miterlimit:10;}
</style>
<linearGradient id="SVGID_1_" gradientUnits="userSpaceOnUse" x1="41.3333" y1="74.174" x2="299.6667" y2="74.174">
	<stop  offset="0" style="stop-color:#ED1C24"/>
	<stop  offset="1" style="stop-color:#ED1E79"/>
</linearGradient>
<path class="st0" d="M273.8,100.6 M280.7,90.4c1-1.7,1.9-3.4,2.7-5.1 M73.8,121 M63.7,121 M58.8,121 M56.7,121 M55.3,121
	 M52.3,130.1 M135.3,134.5 M138.8,127.9 M140.9,121.8 M141.9,117.3 M142.7,108.7 M141.2,96.6 M139,90c-7.2-17.4-24.2-29.7-44-29.7
	c-26.3,0-47.7,21.6-47.7,48.3 M119.5,89.1 M245.1,97 M248,86.5c0.7-3.6,1-7.4,1-11.2c0-35.2-29.3-63.8-65.5-63.8
	c-33.8,0-61.6,24.9-65.1,56.8 M230.4,97.5 M293.2,120.8 M293.6,117.2 M293.7,114.8c0-18.8-15.2-34-34-34c-12.5,0-23.3,6.7-29.3,16.7
	 M299.5,136.5L42,136.8 M293.7,141.9l-0.1-27.9 M47.3,108.7l0.1,34.2"/>
<linearGradient id="SVGID_2_" gradientUnits="userSpaceOnUse" x1="175.5" y1="29.7917" x2="175.5" y2="29.7917">
	<stop  offset="0" style="stop-color:#ED1C24"/>
	<stop  offset="1" style="stop-color:#ED1E79"/>
</linearGradient>
<path class="st1" d="M175.5,29.8"/>
<linearGradient id="SVGID_3_" gradientUnits="userSpaceOnUse" x1="-428.264" y1="32.5441" x2="-428.264" y2="32.5441" gradientTransform="matrix(-1 5.627430e-03 5.627430e-03 1 -253.1149 0.6788)">
	<stop  offset="0" style="stop-color:#ED1C24"/>
	<stop  offset="1" style="stop-color:#ED1E79"/>
</linearGradient>
<path class="st2" d="M175.3,30.8"/>
<linearGradient id="SVGID_4_" gradientUnits="userSpaceOnUse" x1="173.5" y1="160" x2="173.5" y2="238">
	<stop  offset="0" style="stop-color:#ED1C24"/>
	<stop  offset="1" style="stop-color:#ED1E79"/>
</linearGradient>
<linearGradient id="SVGID_5_" gradientUnits="userSpaceOnUse" x1="81.3749" y1="148.7057" x2="254.6987" y2="232.024">
	<stop  offset="0" style="stop-color:#ED1C24"/>
	<stop  offset="1" style="stop-color:#ED1E79"/>
</linearGradient>
<path class="st3" d="M107,178.8v0.4c0,1-0.8,1.8-1.8,1.8H92.8l8.7,8.7c0.7,0.7,0.7,1.8,0,2.6l-0.3,0.3c-0.7,0.7-1.8,0.7-2.6,0
	l-8.7-8.7v12.4c0,1-0.8,1.8-1.8,1.8h-0.4c-1,0-1.8-0.8-1.8-1.8v-12.4l-8.7,8.7c-0.7,0.7-1.9,0.7-2.6,0l-0.3-0.3
	c-0.7-0.7-0.7-1.8,0-2.6l8.7-8.7H70.8c-1,0-1.8-0.8-1.8-1.8v-0.4c0-1,0.8-1.8,1.8-1.8h12.4l-8.7-8.7c-0.7-0.7-0.7-1.9,0-2.6l0.3-0.3
	c0.7-0.7,1.8-0.7,2.6,0l8.7,8.7v-12.4c0-1,0.8-1.8,1.8-1.8h0.4c1,0,1.8,0.8,1.8,1.8v12.4l8.7-8.7c0.7-0.7,1.9-0.7,2.6,0l0.3,0.3
	c0.7,0.7,0.7,1.8,0,2.6l-8.7,8.7h12.4C106.2,177,107,177.8,107,178.8z M161.2,177h-12.4l8.7-8.7c0.7-0.7,0.7-1.9,0-2.6l-0.3-0.3
	c-0.7-0.7-1.8-0.7-2.6,0l-8.7,8.7v-12.4c0-1-0.8-1.8-1.8-1.8h-0.4c-1,0-1.8,0.8-1.8,1.8v12.4l-8.7-8.7c-0.7-0.7-1.9-0.7-2.6,0
	l-0.3,0.3c-0.7,0.7-0.7,1.8,0,2.6l8.7,8.7h-12.4c-1,0-1.8,0.8-1.8,1.8v0.4c0,1,0.8,1.8,1.8,1.8h12.4l-8.7,8.7
	c-0.7,0.7-0.7,1.8,0,2.6l0.3,0.3c0.7,0.7,1.8,0.7,2.6,0l8.7-8.7v12.4c0,1,0.8,1.8,1.8,1.8h0.4c1,0,1.8-0.8,1.8-1.8v-12.4l8.7,8.7
	c0.7,0.7,1.9,0.7,2.6,0l0.3-0.3c0.7-0.7,0.7-1.8,0-2.6l-8.7-8.7h12.4c1,0,1.8-0.8,1.8-1.8v-0.4C163,177.8,162.2,177,161.2,177z
	 M220.2,177h-12.4l8.7-8.7c0.7-0.7,0.7-1.9,0-2.6l-0.3-0.3c-0.7-0.7-1.8-0.7-2.6,0l-8.7,8.7v-12.4c0-1-0.8-1.8-1.8-1.8h-0.4
	c-1,0-1.8,0.8-1.8,1.8v12.4l-8.7-8.7c-0.7-0.7-1.9-0.7-2.6,0l-0.3,0.3c-0.7,0.7-0.7,1.8,0,2.6l8.7,8.7h-12.4c-1,0-1.8,0.8-1.8,1.8
	v0.4c0,1,0.8,1.8,1.8,1.8h12.4l-8.7,8.7c-0.7,0.7-0.7,1.8,0,2.6l0.3,0.3c0.7,0.7,1.8,0.7,2.6,0l8.7-8.7v12.4c0,1,0.8,1.8,1.8,1.8
	h0.4c1,0,1.8-0.8,1.8-1.8v-12.4l8.7,8.7c0.7,0.7,1.9,0.7,2.6,0l0.3-0.3c0.7-0.7,0.7-1.8,0-2.6l-8.7-8.7h12.4c1,0,1.8-0.8,1.8-1.8
	v-0.4C222,177.8,221.2,177,220.2,177z M276.2,177h-12.4l8.7-8.7c0.7-0.7,0.7-1.9,0-2.6l-0.3-0.3c-0.7-0.7-1.8-0.7-2.6,0l-8.7,8.7
	v-12.4c0-1-0.8-1.8-1.8-1.8h-0.4c-1,0-1.8,0.8-1.8,1.8v12.4l-8.7-8.7c-0.7-0.7-1.9-0.7-2.6,0l-0.3,0.3c-0.7,0.7-0.7,1.8,0,2.6
	l8.7,8.7h-12.4c-1,0-1.8,0.8-1.8,1.8v0.4c0,1,0.8,1.8,1.8,1.8h12.4l-8.7,8.7c-0.7,0.7-0.7,1.8,0,2.6l0.3,0.3c0.7,0.7,1.8,0.7,2.6,0
	l8.7-8.7v12.4c0,1,0.8,1.8,1.8,1.8h0.4c1,0,1.8-0.8,1.8-1.8v-12.4l8.7,8.7c0.7,0.7,1.9,0.7,2.6,0l0.3-0.3c0.7-0.7,0.7-1.8,0-2.6
	l-8.7-8.7h12.4c1,0,1.8-0.8,1.8-1.8v-0.4C278,177.8,277.2,177,276.2,177z M130.2,217h-12.4l8.7-8.7c0.7-0.7,0.7-1.9,0-2.6l-0.3-0.3
	c-0.7-0.7-1.8-0.7-2.6,0l-8.7,8.7v-12.4c0-1-0.8-1.8-1.8-1.8h-0.4c-1,0-1.8,0.8-1.8,1.8v12.4l-8.7-8.7c-0.7-0.7-1.9-0.7-2.6,0
	l-0.3,0.3c-0.7,0.7-0.7,1.8,0,2.6l8.7,8.7H95.8c-1,0-1.8,0.8-1.8,1.8v0.4c0,1,0.8,1.8,1.8,1.8h12.4l-8.7,8.7c-0.7,0.7-0.7,1.8,0,2.6
	l0.3,0.3c0.7,0.7,1.8,0.7,2.6,0l8.7-8.7v12.4c0,1,0.8,1.8,1.8,1.8h0.4c1,0,1.8-0.8,1.8-1.8v-12.4l8.7,8.7c0.7,0.7,1.9,0.7,2.6,0
	l0.3-0.3c0.7-0.7,0.7-1.8,0-2.6l-8.7-8.7h12.4c1,0,1.8-0.8,1.8-1.8v-0.4C132,217.8,131.2,217,130.2,217z M186.2,217h-12.4l8.7-8.7
	c0.7-0.7,0.7-1.9,0-2.6l-0.3-0.3c-0.7-0.7-1.8-0.7-2.6,0l-8.7,8.7v-12.4c0-1-0.8-1.8-1.8-1.8h-0.4c-1,0-1.8,0.8-1.8,1.8v12.4
	l-8.7-8.7c-0.7-0.7-1.9-0.7-2.6,0l-0.3,0.3c-0.7,0.7-0.7,1.8,0,2.6l8.7,8.7h-12.4c-1,0-1.8,0.8-1.8,1.8v0.4c0,1,0.8,1.8,1.8,1.8
	h12.4l-8.7,8.7c-0.7,0.7-0.7,1.8,0,2.6l0.3,0.3c0.7,0.7,1.8,0.7,2.6,0l8.7-8.7v12.4c0,1,0.8,1.8,1.8,1.8h0.4c1,0,1.8-0.8,1.8-1.8
	v-12.4l8.7,8.7c0.7,0.7,1.9,0.7,2.6,0l0.3-0.3c0.7-0.7,0.7-1.8,0-2.6l-8.7-8.7h12.4c1,0,1.8-0.8,1.8-1.8v-0.4
	C188,217.8,187.2,217,186.2,217z M245.2,217h-12.4l8.7-8.7c0.7-0.7,0.7-1.9,0-2.6l-0.3-0.3c-0.7-0.7-1.8-0.7-2.6,0l-8.7,8.7v-12.4
	c0-1-0.8-1.8-1.8-1.8h-0.4c-1,0-1.8,0.8-1.8,1.8v12.4l-8.7-8.7c-0.7-0.7-1.9-0.7-2.6,0l-0.3,0.3c-0.7,0.7-0.7,1.8,0,2.6l8.7,8.7
	h-12.4c-1,0-1.8,0.8-1.8,1.8v0.4c0,1,0.8,1.8,1.8,1.8h12.4l-8.7,8.7c-0.7,0.7-0.7,1.8,0,2.6l0.3,0.3c0.7,0.7,1.8,0.7,2.6,0l8.7-8.7
	v12.4c0,1,0.8,1.8,1.8,1.8h0.4c1,0,1.8-0.8,1.8-1.8v-12.4l8.7,8.7c0.7,0.7,1.9,0.7,2.6,0l0.3-0.3c0.7-0.7,0.7-1.8,0-2.6l-8.7-8.7
	h12.4c1,0,1.8-0.8,1.8-1.8v-0.4C247,217.8,246.2,217,245.2,217z"/>
</svg>
