<?xml version="1.0" encoding="utf-8"?>
<!-- Generator: Adobe Illustrator 22.1.0, SVG Export Plug-In . SVG Version: 6.00 Build 0)  -->
<svg version="1.1" id="Layer_1" xmlns="http://www.w3.org/2000/svg" xmlns:xlink="http://www.w3.org/1999/xlink" x="0px" y="0px"
	 viewBox="0 0 312 229" style="enable-background:new 0 0 312 229;" xml:space="preserve">
<style type="text/css">
	.st0{fill:url(#SVGID_1_);}
	.st1{fill:url(#SVGID_2_);}
	.st2{fill:url(#SVGID_3_);}
	.st3{fill:url(#SVGID_4_);}
	.st4{fill:url(#SVGID_5_);}
	.st5{fill:url(#SVGID_6_);}
</style>
<g>
	<g>
		
			<linearGradient id="SVGID_1_" gradientUnits="userSpaceOnUse" x1="466.2083" y1="394.1947" x2="725" y2="394.1947" gradientTransform="matrix(1 0 0 1 -413 -233)">
			<stop  offset="0" style="stop-color:#ED1C24"/>
			<stop  offset="1" style="stop-color:#ED1E79"/>
		</linearGradient>
		<path class="st0" d="M311.7,229l-0.1-27h0.1c0-22-17.9-40.1-40-40.1c-1.6,0-3.1,0-4.7,0.2c-0.1-38.4-32.1-69.6-71.5-69.6
			c-33.1,0-61.3,22-69.3,52.5c-6-2.3-12.5-3.5-19.2-3.5c-29.5,0-53.6,24.4-53.7,54.4l-0.1,0l0,34l11.8,0v-0.1l247-0.2V229H311.7z
			 M299.6,217.5l-234.2,0.2l-0.1-22.1c0-23.3,18.7-42.3,41.7-42.3c16.8,0,31.9,10.2,38.4,26l11.1-4.6c-4.1-10-10.9-18.2-19.3-24
			c5.5-26.7,29.7-46.2,58.3-46.2c32.8,0,59.5,25.9,59.5,57.8c0,1.1,0,2.2-0.1,3.3c-7.3,3.4-13.5,8.9-17.7,15.9l10.3,6.1
			c4-6.7,10.6-11.4,18.1-13.1l0.2,0c0,0,0-0.1,0-0.1c1.9-0.4,3.8-0.6,5.8-0.6c15.2,0,27.6,12.2,28,27.2h-0.1L299.6,217.5z"/>
	</g>
</g>
<g>
	<g>
		<g>
			
				<linearGradient id="SVGID_2_" gradientUnits="userSpaceOnUse" x1="395.5074" y1="360.2544" x2="614.5338" y2="360.2544" gradientTransform="matrix(0.9925 -0.1222 0.1222 0.9925 -440.0869 -211.6737)">
				<stop  offset="0" style="stop-color:#ED1C24"/>
				<stop  offset="1" style="stop-color:#ED1E79"/>
			</linearGradient>
			<path class="st1" d="M28.6,129.3l-20.8,2.6c-3.8,0.5-6.6,4-6.1,7.8c0.5,3.8,4,6.6,7.8,6.1l20.8-2.6c3.8-0.5,6.6-4,6.1-7.8
				C35.9,131.5,32.4,128.8,28.6,129.3z"/>
			
				<linearGradient id="SVGID_3_" gradientUnits="userSpaceOnUse" x1="395.5074" y1="360.2544" x2="614.5338" y2="360.2544" gradientTransform="matrix(0.9925 -0.1222 0.1222 0.9925 -440.0869 -211.6737)">
				<stop  offset="0" style="stop-color:#ED1C24"/>
				<stop  offset="1" style="stop-color:#ED1E79"/>
			</linearGradient>
			<path class="st2" d="M103.4,33.4c0.5,3.8,4,6.6,7.8,6.1c3.8-0.5,6.6-4,6.1-7.8l-2.6-20.8c-0.5-3.8-4-6.6-7.8-6.1
				c-3.8,0.5-6.6,4-6.1,7.8L103.4,33.4z"/>
			
				<linearGradient id="SVGID_4_" gradientUnits="userSpaceOnUse" x1="395.5074" y1="360.2544" x2="614.5338" y2="360.2544" gradientTransform="matrix(0.9925 -0.1222 0.1222 0.9925 -440.0869 -211.6737)">
				<stop  offset="0" style="stop-color:#ED1C24"/>
				<stop  offset="1" style="stop-color:#ED1E79"/>
			</linearGradient>
			<path class="st3" d="M113.5,53.8c-40,4.9-68.5,41.4-63.5,81.4c1.5,12.5,6.1,23.8,13,33.4c3-2.7,6.1-5.3,9.1-8
				c-5.3-7.8-8.9-16.9-10.2-26.9c-4.1-33.4,19.7-63.9,53.1-68c26.4-3.2,50.9,10.9,62.1,33.5c3.8-1.4,7.6-2.7,11.5-3.7
				C175.6,67.6,145.7,49.9,113.5,53.8z"/>
			
				<linearGradient id="SVGID_5_" gradientUnits="userSpaceOnUse" x1="395.5074" y1="360.2544" x2="614.5338" y2="360.2544" gradientTransform="matrix(0.9925 -0.1222 0.1222 0.9925 -440.0869 -211.6737)">
				<stop  offset="0" style="stop-color:#ED1C24"/>
				<stop  offset="1" style="stop-color:#ED1E79"/>
			</linearGradient>
			<path class="st4" d="M201.3,29.8c-3-2.4-7.4-1.9-9.7,1l-12.5,16c-2.3,2.9-1.7,7.3,1.3,9.6c3,2.4,7.4,1.9,9.7-1l12.5-16
				C205,36.5,204.3,32.2,201.3,29.8z"/>
			
				<linearGradient id="SVGID_6_" gradientUnits="userSpaceOnUse" x1="395.5074" y1="360.2544" x2="614.5338" y2="360.2544" gradientTransform="matrix(0.9925 -0.1222 0.1222 0.9925 -440.0869 -211.6737)">
				<stop  offset="0" style="stop-color:#ED1C24"/>
				<stop  offset="1" style="stop-color:#ED1E79"/>
			</linearGradient>
			<path class="st5" d="M47,64.3L29.8,50.9c-3.2-2.5-7.7-2-10,1c-2.4,3-1.7,7.5,1.4,10l17.2,13.4c3.2,2.5,7.7,2,10-1
				S50.1,66.8,47,64.3z"/>
		</g>
	</g>
</g>
</svg>
